<svg width="130" height="39" viewBox="0 0 130 39" fill="none" xmlns="http://www.w3.org/2000/svg">
<path d="M12.7816 23.4787C8.37098 22.9743 4.83746 19.4307 4.33267 15.0296C3.67014 9.20974 8.22585 4.26636 13.911 4.26636C15.3875 4.26636 16.7883 4.60685 18.0377 5.20586C18.4731 5.41393 18.9968 5.31935 19.306 4.94734L20.7572 3.23229C21.1863 2.72156 21.0349 1.946 20.4481 1.63074C18.309 0.489471 15.8419 -0.109536 13.217 0.0165709C6.24456 0.350753 0.521515 5.93097 0.0356555 12.8984C-0.538542 21.0322 5.89752 27.8105 13.9173 27.8105C15.6841 27.8105 17.3752 27.4826 18.9274 26.8773C19.5899 26.6188 19.7981 25.7928 19.3501 25.2442L17.8736 23.4472C17.6023 23.1193 17.1606 22.9932 16.7505 23.1193C15.5137 23.4976 14.1697 23.6363 12.7816 23.4787Z" fill="black"/>
<path d="M35.7555 10.6095H33.2063V5.31304C33.2063 4.73295 32.7394 4.26636 32.1589 4.26636H29.982C29.4015 4.26636 28.9346 4.73295 28.9346 5.31304V26.7638C28.9346 27.3439 29.4015 27.8105 29.982 27.8105H32.1589C32.7394 27.8105 33.2063 27.3439 33.2063 26.7638V14.8782H35.7555C36.3297 14.8782 36.7967 14.4116 36.7967 13.8379V11.6499C36.7967 11.0761 36.3297 10.6095 35.7555 10.6095Z" fill="black"/>
<path d="M93.2263 14.8783C95.6177 14.8783 97.5611 16.8204 97.5611 19.2101C97.5611 21.5998 95.6177 23.5419 93.2263 23.5419C90.8348 23.5419 88.8914 21.5998 88.8914 19.2101C88.8914 16.8204 90.8348 14.8783 93.2263 14.8783ZM93.2263 10.6096C88.475 10.6096 84.6196 14.4622 84.6196 19.2101C84.6196 23.958 88.475 27.8106 93.2263 27.8106C97.9776 27.8106 101.833 23.958 101.833 19.2101C101.833 14.4622 97.9776 10.6096 93.2263 10.6096Z" fill="black"/>
<path d="M21.4512 11.6563V26.7639C21.4512 27.3377 21.9181 27.8043 22.4923 27.8043H24.6755C25.2497 27.8043 25.7166 27.3377 25.7166 26.7639V11.6563C25.7166 11.0762 25.2497 10.6096 24.6692 10.6096H22.4923C21.9181 10.6096 21.4512 11.0762 21.4512 11.6563Z" fill="black"/>
<path d="M21.0791 6.78227C21.0791 5.4014 22.2023 4.27905 23.5841 4.27905C24.966 4.27905 26.0891 5.4014 26.0891 6.78227C26.0891 8.16314 24.966 9.28548 23.5841 9.28548C22.2023 9.29179 21.0791 8.16944 21.0791 6.78227Z" fill="black"/>
<path d="M111.733 14.8783C114.124 14.8783 116.068 16.8204 116.068 19.2101C116.068 21.5998 114.124 23.5419 111.733 23.5419C109.341 23.5419 107.398 21.5998 107.398 19.2101C107.398 16.8204 109.341 14.8783 111.733 14.8783ZM111.733 10.6096C106.982 10.6096 103.126 14.4622 103.126 19.2101C103.126 23.958 106.982 27.8106 111.733 27.8106C116.484 27.8106 120.34 23.958 120.34 19.2101C120.34 14.4622 116.484 10.6096 111.733 10.6096Z" fill="black"/>
<path d="M82.1523 23.0122C81.4961 23.3716 80.7326 23.567 79.9249 23.5355C77.6849 23.4535 75.8362 21.6061 75.7478 19.3677C75.6595 16.9023 77.6345 14.872 80.0827 14.872C80.8336 14.872 81.5466 15.0674 82.1649 15.4079C82.6634 15.6854 83.2881 15.4962 83.5657 14.9981L84.6321 13.0939C84.916 12.5831 84.7267 11.94 84.2156 11.6626C82.8212 10.8996 81.1869 10.5087 79.458 10.6285C75.2052 10.9311 71.76 14.4054 71.495 18.6615C71.1858 23.6553 75.1484 27.8105 80.0827 27.8105C81.5844 27.8105 82.9915 27.4259 84.2156 26.7512C84.7267 26.4738 84.9097 25.8306 84.6258 25.3199L83.5594 23.4157C83.2881 22.9176 82.6571 22.741 82.1523 23.0122Z" fill="black"/>
<path d="M128.959 10.6095H126.41V5.31304C126.41 4.73295 125.943 4.26636 125.362 4.26636H123.185C122.605 4.26636 122.138 4.73295 122.138 5.31304V26.7638C122.138 27.3439 122.605 27.8105 123.185 27.8105H125.362C125.943 27.8105 126.41 27.3439 126.41 26.7638V14.8782H128.959C129.533 14.8782 130 14.4116 130 13.8379V11.6499C130 11.0761 129.533 10.6095 128.959 10.6095Z" fill="black"/>
<path d="M27.5539 34.8662H27.5469V34.8802H27.5539V34.8662Z" fill="black"/>
<path d="M55.809 19.2101V11.6563C55.809 11.0825 55.3421 10.6096 54.7616 10.6096H52.5784C52.0042 10.6096 51.5372 11.0762 51.5372 11.6563V19.2101C51.5372 21.5998 49.5938 23.5419 47.2024 23.5419C44.8109 23.5419 42.8675 21.5998 42.8675 19.2101V11.6563C42.8675 11.0825 42.4006 10.6096 41.82 10.6096H39.6368C39.0626 10.6096 38.5894 11.0762 38.5894 11.6563V19.0146C38.5894 23.8382 42.5394 27.8988 47.3601 27.8043C48.2813 27.7853 49.171 27.6214 49.9976 27.3377C47.8207 31.392 43.5363 34.1537 38.6209 34.1537C35.5796 34.1537 32.7843 33.0944 30.5759 31.3289C30.1657 31.0011 29.5789 31.0263 29.2066 31.392C28.6577 31.9343 28.115 32.4765 27.6165 32.9683C27.1875 33.3908 27.2127 34.0907 27.6796 34.4753C30.6516 36.9344 34.4627 38.4161 38.6209 38.4161C48.111 38.4161 55.8027 30.7299 55.8027 21.2467V19.229C55.809 19.229 55.809 19.2164 55.809 19.2101Z" fill="black"/>
<path d="M64.1566 17.2489L63.2733 17.2174C62.5539 17.2174 61.9671 16.6941 61.9671 16.0509C61.9671 15.4015 62.5539 14.8781 63.2796 14.8781H63.5509C64.3964 14.8781 65.6899 15.0736 66.3777 15.4141C66.933 15.6915 67.6334 15.5024 67.9489 15.0042L69.1414 13.1C69.4569 12.5893 69.2487 11.9525 68.6745 11.6687C67.3053 11.0003 65.7404 10.622 64.0683 10.6157H63.9989H63.9926H63.6897C60.3834 10.6157 57.7017 13.1 57.7017 16.0509C57.7017 19.0018 60.3834 21.2024 63.6897 21.2024H64.5605C65.2861 21.2024 65.8729 21.7257 65.8729 22.3752C65.8729 23.0246 65.2861 23.548 64.5605 23.548C64.5605 23.548 62.6107 23.6299 60.9702 23.0183C60.4023 22.7472 59.7145 22.93 59.4053 23.4282L58.2128 25.3324C57.8973 25.8431 58.1055 26.4799 58.6797 26.7637C60.0426 27.432 62.1123 27.8104 63.7781 27.8167H63.8348C63.8412 27.8167 63.8475 27.8167 63.8538 27.8167H64.1566C67.463 27.8167 70.1447 25.3261 70.1447 22.3752C70.1447 19.418 67.4693 17.2489 64.1566 17.2489Z" fill="black"/>
</svg>
